<?xml version="1.0" encoding="utf-8"?>
<!-- Generator: Adobe Illustrator 18.0.0, SVG Export Plug-In . SVG Version: 6.00 Build 0)  -->
<!DOCTYPE svg PUBLIC "-//W3C//DTD SVG 1.1//EN" "http://www.w3.org/Graphics/SVG/1.1/DTD/svg11.dtd">
<svg version="1.1" id="Capa_1" xmlns="http://www.w3.org/2000/svg" xmlns:xlink="http://www.w3.org/1999/xlink" x="0px" y="0px"
	 viewBox="0 0 512 512" enable-background="new 0 0 512 512" xml:space="preserve">
<g>
	<path fill="#D80027" d="M256,355.8c56.9,0,110.3-11.3,155.3-31.9c2.2-14.2,3.4-29,3.4-43.8c0-112.7-66.6-208.8-158.7-243.5
		C163.9,71.4,97.3,167.5,97.3,280.2c0,14.8,1.1,29.6,3.4,43.8C145.7,343.9,199.1,355.8,256,355.8z M206.5,216.5
		c14.2-6.2,31.3-10.2,49.5-10.2s34.7,4,49.5,10.2c0.6,4.6,1.1,9.1,1.1,13.7c0,35.9-21,66-50.7,77.3c-29-10.8-50.7-41.6-50.7-77.3
		C205.3,225.6,205.9,221,206.5,216.5z M512,350.7c0,68.9-114.9,124.6-256,124.6c-141.1,0-256-55.8-256-124.6
		c0-33.6,27.9-64.3,72.8-87c-1.1,10.8-1.7,21.7-1.7,33c0,18.2,1.1,35.9,4,53.4c52.9,24.4,114.3,38.7,180.9,38.7s128-14.2,180.9-38.7
		c2.9-17.1,4-35.2,4-53.4c0-11.3-0.6-22.2-1.7-33C484.1,286.4,512,316.6,512,350.7z M72.8,263.7L72.8,263.7L72.8,263.7L72.8,263.7z"
		/>
</g>
<g>
	<path fill="#FFFFFF" d="M194.6,316.9c-11.7-13.3-23.5-27.2-30.9-43.7c-7.5-17.6-9.6-37.9-5.9-57.1c3.7-19.2,12.3-37.3,24.5-52.8
		c-1.1,13.3,3.7,27.2,12.8,37.3c-5.3-25.6,3.2-53.3,20.3-73.6s40.5-33.6,65.1-42.7c-12.3,12.8-13.9,33.1-9.1,50.1
		c4.8,17.1,14.9,32,24,47.5c9.1,15.5,17.6,31.5,18.1,49.1c4.8-9.1,10.1-18.1,13.3-28.3c3.2-10.1,4.8-20.8,2.1-30.9
		c9.6,11.7,14.9,23.5,17.6,38.4c2.7,14.9,2.1,30.4,0.5,45.3c-2.1,16.5-6.4,33.6-15.5,47.5c-10.7,16.5-27.7,28.3-46.4,34.7
		C252.2,343.5,219.7,338.7,194.6,316.9z"/>
	<path fill="#D80027" d="M235.1,336.6c43.7,17.1,86.9-34.7,62.9-74.7c0-0.5-0.5-0.5-0.5-1.1c2.1,21.9-3.2,37.9-13.3,46.9
		c5.3-12.8,1.6-27.7-4.8-40.5c-6.4-12.3-15.5-23.5-22.4-35.2c-6.9-12.3-12.3-26.1-9.1-40c-12.8,9.6-21.9,24-25.6,39.5
		s-1.6,32.5,5.3,46.9c-8-5.9-13.9-15.5-14.4-25.6c-8.5,10.1-13.9,23.5-13.3,36.8C199.9,310.5,216.5,329.1,235.1,336.6z"/>
	<g>
	</g>
	<g>
	</g>
	<g>
	</g>
	<g>
	</g>
	<g>
	</g>
	<g>
	</g>
	<g>
	</g>
	<g>
	</g>
	<g>
	</g>
	<g>
	</g>
	<g>
	</g>
	<g>
	</g>
	<g>
	</g>
	<g>
	</g>
	<g>
	</g>
</g>
</svg>
