<?xml version="1.0" encoding="iso-8859-1"?>
<!-- Generator: Adobe Illustrator 19.0.0, SVG Export Plug-In . SVG Version: 6.00 Build 0)  -->
<svg version="1.1" id="Layer_1" xmlns="http://www.w3.org/2000/svg" xmlns:xlink="http://www.w3.org/1999/xlink" x="0px" y="0px"
	 viewBox="0 0 511.999 511.999" style="enable-background:new 0 0 511.999 511.999;" xml:space="preserve">
<polygon style="fill:#CED4D2;" points="312.813,67.227 450.103,67.227 312.813,8.171 199.186,8.171 61.896,67.227 199.186,67.227 
	199.186,126.283 61.896,185.339 199.186,185.339 99.338,503.831 256.553,356.697 412.661,503.831 312.813,185.339 450.103,185.339 
	312.813,126.283 "/>
<path d="M450.103,117.872c4.512,0,8.17-3.658,8.17-8.17V67.228c0-0.056-0.007-0.109-0.008-0.163
	c-0.003-0.179-0.012-0.355-0.027-0.531c-0.008-0.094-0.017-0.186-0.028-0.279c-0.02-0.16-0.045-0.318-0.073-0.476
	c-0.017-0.1-0.035-0.2-0.057-0.3c-0.032-0.147-0.072-0.291-0.112-0.435c-0.028-0.101-0.052-0.204-0.084-0.303
	c-0.056-0.174-0.121-0.344-0.187-0.514c-0.059-0.148-0.123-0.293-0.19-0.436c-0.06-0.13-0.119-0.259-0.186-0.386
	c-0.052-0.098-0.11-0.192-0.166-0.288c-0.071-0.121-0.142-0.242-0.218-0.358c-0.058-0.088-0.118-0.172-0.179-0.257
	c-0.086-0.121-0.174-0.24-0.267-0.356c-0.06-0.075-0.121-0.15-0.184-0.223c-0.103-0.12-0.209-0.237-0.319-0.352
	c-0.062-0.064-0.123-0.129-0.186-0.191c-0.119-0.115-0.243-0.227-0.368-0.336c-0.064-0.056-0.126-0.112-0.193-0.166
	c-0.131-0.106-0.268-0.205-0.405-0.303c-0.069-0.049-0.135-0.101-0.206-0.148c-0.136-0.09-0.279-0.173-0.422-0.256
	c-0.205-0.119-0.415-0.229-0.632-0.331c-0.083-0.038-0.161-0.082-0.246-0.119l-0.007-0.002c-0.025-0.011-0.05-0.022-0.075-0.033
	L316.042,0.666c-0.001-0.001-0.002-0.001-0.002-0.001C315.049,0.239,313.959,0,312.814,0H199.186c-1.146,0-2.235,0.239-3.226,0.663
	c0,0-0.001,0.001-0.002,0.001L58.749,59.687c-0.025,0.011-0.05,0.022-0.075,0.033l-0.007,0.002
	c-0.085,0.037-0.163,0.081-0.246,0.119c-0.216,0.102-0.427,0.211-0.632,0.331c-0.143,0.083-0.285,0.166-0.422,0.256
	c-0.07,0.047-0.136,0.099-0.205,0.148c-0.138,0.098-0.275,0.197-0.405,0.303c-0.066,0.053-0.129,0.11-0.193,0.166
	c-0.126,0.109-0.249,0.22-0.368,0.336c-0.064,0.062-0.125,0.126-0.186,0.191c-0.11,0.114-0.217,0.231-0.319,0.352
	c-0.063,0.073-0.124,0.148-0.184,0.223c-0.093,0.117-0.181,0.235-0.267,0.356c-0.061,0.085-0.121,0.17-0.179,0.257
	c-0.076,0.117-0.147,0.237-0.218,0.358c-0.056,0.096-0.113,0.19-0.166,0.288c-0.068,0.126-0.126,0.256-0.186,0.386
	c-0.066,0.144-0.131,0.289-0.19,0.436c-0.066,0.17-0.132,0.34-0.187,0.514c-0.032,0.099-0.056,0.203-0.084,0.303
	c-0.04,0.144-0.08,0.289-0.112,0.435c-0.022,0.098-0.039,0.198-0.057,0.3c-0.028,0.157-0.053,0.316-0.073,0.476
	c-0.011,0.093-0.021,0.185-0.028,0.279c-0.015,0.176-0.023,0.353-0.027,0.531c-0.001,0.054-0.008,0.109-0.008,0.163v42.474
	c0,4.512,3.658,8.17,8.17,8.17s8.17-3.658,8.17-8.17V75.397h120.95v45.506L58.749,177.798c-0.025,0.011-0.05,0.022-0.075,0.033
	l-0.007,0.002c-0.085,0.036-0.163,0.081-0.246,0.119c-0.216,0.102-0.427,0.211-0.632,0.331c-0.143,0.083-0.285,0.166-0.422,0.256
	c-0.07,0.047-0.136,0.099-0.205,0.148c-0.138,0.098-0.275,0.197-0.405,0.303c-0.066,0.053-0.129,0.11-0.193,0.166
	c-0.126,0.109-0.249,0.22-0.368,0.336c-0.064,0.062-0.125,0.126-0.186,0.191c-0.11,0.114-0.217,0.231-0.319,0.352
	c-0.063,0.073-0.124,0.148-0.184,0.223c-0.093,0.117-0.181,0.235-0.267,0.356c-0.061,0.085-0.121,0.17-0.179,0.257
	c-0.076,0.117-0.147,0.237-0.218,0.358c-0.056,0.096-0.113,0.19-0.166,0.288c-0.068,0.126-0.126,0.256-0.186,0.386
	c-0.066,0.144-0.131,0.289-0.19,0.436c-0.066,0.17-0.132,0.34-0.187,0.514c-0.032,0.099-0.056,0.203-0.084,0.303
	c-0.04,0.144-0.08,0.289-0.112,0.435c-0.022,0.099-0.039,0.199-0.057,0.3c-0.028,0.158-0.053,0.316-0.073,0.476
	c-0.011,0.093-0.021,0.185-0.028,0.279c-0.015,0.176-0.023,0.353-0.027,0.531c-0.001,0.054-0.008,0.109-0.008,0.163v42.474
	c0,4.512,3.658,8.17,8.17,8.17s8.17-3.658,8.17-8.17v-34.304h117.995l-96.52,307.879c-0.009,0.028-0.011,0.058-0.02,0.086
	c-0.117,0.39-0.207,0.785-0.266,1.185c-0.004,0.031-0.012,0.061-0.016,0.09c-0.052,0.391-0.069,0.785-0.063,1.18
	c0.001,0.078,0,0.156,0.003,0.234c0.015,0.382,0.058,0.764,0.126,1.141c0.012,0.065,0.026,0.129,0.04,0.194
	c0.161,0.779,0.438,1.538,0.831,2.255c0.029,0.054,0.059,0.11,0.089,0.163c0.194,0.336,0.411,0.658,0.657,0.97
	c0.046,0.058,0.096,0.112,0.143,0.169c0.1,0.12,0.196,0.244,0.304,0.359c0.137,0.147,0.285,0.28,0.431,0.414
	c0.045,0.041,0.085,0.086,0.131,0.125c0.312,0.275,0.639,0.517,0.98,0.736c0.027,0.019,0.049,0.04,0.076,0.058
	c0.037,0.023,0.076,0.038,0.113,0.061c0.27,0.163,0.546,0.313,0.829,0.442c0.041,0.02,0.083,0.041,0.124,0.06
	c0.32,0.139,0.646,0.258,0.979,0.355c0.075,0.022,0.151,0.038,0.228,0.058c0.259,0.068,0.52,0.123,0.782,0.164
	c0.096,0.016,0.192,0.032,0.289,0.044c0.329,0.04,0.66,0.069,0.992,0.069c0.003,0,0.007,0,0.01,0c0,0,0.001,0,0.002,0h0.002
	c1.753,0,3.509-0.561,4.976-1.692c0.208-0.16,0.41-0.331,0.605-0.513l232.757-217.832l57.9,184.689L285.492,373.624
	c-3.295-3.083-8.465-2.912-11.548,0.382c-3.083,3.295-2.912,8.465,0.382,11.548l132.752,124.238
	c1.556,1.455,3.563,2.205,5.585,2.205c1.5,0,3.008-0.412,4.345-1.253c3.142-1.975,4.559-5.819,3.448-9.361l-96.52-307.878h117.995
	v34.304c0,4.512,3.658,8.17,8.17,8.17c4.512,0,8.17-3.658,8.17-8.17v-42.474c0-0.056-0.007-0.109-0.008-0.163
	c-0.003-0.179-0.012-0.355-0.027-0.531c-0.008-0.094-0.017-0.186-0.028-0.279c-0.02-0.159-0.045-0.318-0.073-0.476
	c-0.017-0.1-0.035-0.2-0.057-0.3c-0.032-0.146-0.072-0.291-0.112-0.435c-0.028-0.101-0.052-0.204-0.084-0.303
	c-0.056-0.174-0.121-0.344-0.187-0.514c-0.059-0.148-0.123-0.293-0.19-0.436c-0.06-0.13-0.119-0.259-0.186-0.386
	c-0.052-0.098-0.11-0.192-0.166-0.288c-0.071-0.121-0.142-0.242-0.218-0.358c-0.058-0.087-0.118-0.172-0.179-0.257
	c-0.086-0.121-0.174-0.24-0.267-0.356c-0.06-0.075-0.121-0.15-0.184-0.223c-0.103-0.12-0.209-0.237-0.319-0.352
	c-0.062-0.064-0.123-0.129-0.186-0.191c-0.119-0.115-0.243-0.227-0.368-0.336c-0.064-0.056-0.126-0.112-0.193-0.166
	c-0.131-0.106-0.268-0.205-0.405-0.303c-0.069-0.049-0.135-0.101-0.206-0.148c-0.136-0.09-0.279-0.173-0.422-0.256
	c-0.205-0.119-0.415-0.229-0.632-0.331c-0.083-0.038-0.161-0.083-0.246-0.119l-0.007-0.002c-0.025-0.011-0.05-0.022-0.075-0.033
	l-132.266-56.895V75.397h120.95v34.304C441.933,114.214,445.591,117.872,450.103,117.872z M207.356,16.342h97.288v42.715h-97.288
	L207.356,16.342L207.356,16.342z M101.566,59.056l89.45-38.477v38.477H101.566z M304.643,177.168h-97.288v-42.715h97.288V177.168z
	 M191.016,138.691v38.477h-89.45L191.016,138.691z M174.32,291.965l69.721,65.251L116.421,476.653L174.32,291.965z M332.254,274.661
	l-76.254,71.364l-76.253-71.364l25.441-81.152h101.625L332.254,274.661z M410.433,177.168h-89.45v-38.477L410.433,177.168z
	 M304.643,118.113h-97.288V75.397h97.288V118.113z M320.983,59.056V20.58l89.45,38.477h-89.45V59.056z"/>
<g>
</g>
<g>
</g>
<g>
</g>
<g>
</g>
<g>
</g>
<g>
</g>
<g>
</g>
<g>
</g>
<g>
</g>
<g>
</g>
<g>
</g>
<g>
</g>
<g>
</g>
<g>
</g>
<g>
</g>
</svg>
