<?xml version="1.0" encoding="utf-8"?>
<!-- Generator: Adobe Illustrator 18.0.0, SVG Export Plug-In . SVG Version: 6.00 Build 0)  -->
<!DOCTYPE svg PUBLIC "-//W3C//DTD SVG 1.1//EN" "http://www.w3.org/Graphics/SVG/1.1/DTD/svg11.dtd">
<svg version="1.1" id="Layer_1" xmlns="http://www.w3.org/2000/svg" xmlns:xlink="http://www.w3.org/1999/xlink" x="0px" y="0px"
	 viewBox="0 0 612 792" enable-background="new 0 0 612 792" xml:space="preserve">
<g>
	<path fill="#5988C1" d="M307.6,90c167,0,302.1,135.4,302.1,302.1c0,167-135.4,302.1-302.1,302.1S5.5,559.1,5.5,392.4
		S140.9,90,307.6,90z"/>
	<path fill="#FFFFFF" d="M143,330.1h92.3V238c0-12.7,10.4-23.1,22.8-23.1H350c12.7,0,22.8,10.4,22.8,23.1v92.1h91.8
		c12.7,0,23.1,10.4,23.1,23.1v91.8c0,12.7-10.4,23.1-23.1,23.1h-91.8V560c0,12.7-10.4,23.1-22.8,23.1h-91.8
		c-12.7,0-22.8-10.4-22.8-23.1v-91.8H143c-12.7,0-23.1-10.4-23.1-23.1v-91.8C119.9,340.5,130.3,330.1,143,330.1z"/>
</g>
</svg>
