<?xml version="1.0" encoding="utf-8"?>
<!-- Generator: Adobe Illustrator 18.0.0, SVG Export Plug-In . SVG Version: 6.00 Build 0)  -->
<!DOCTYPE svg PUBLIC "-//W3C//DTD SVG 1.1//EN" "http://www.w3.org/Graphics/SVG/1.1/DTD/svg11.dtd">
<svg version="1.1" id="Layer_1" xmlns="http://www.w3.org/2000/svg" xmlns:xlink="http://www.w3.org/1999/xlink" x="0px" y="0px"
	 viewBox="0 0 612 792" enable-background="new 0 0 612 792" xml:space="preserve">
<path fill="#2B414D" d="M62,491.6H47.6c-0.5,55-9.6,76.6-9.6,76.6l52.6,9.6C90.7,577.8,62,541.9,62,491.6z M62,372H47.6v110.1H62
	V372z M62,491.6H47.6c-0.5,55-9.6,76.6-9.6,76.6l52.6,9.6C90.7,577.8,62,541.9,62,491.6z M62,372H47.6v110.1H62V372z"/>
<path fill="#475F6C" d="M54.8,467.7c14.4,0,26.3,12,26.3,26.3c0,14.4-12,26.3-26.3,26.3S28.5,508.9,28.5,494
	C28.5,479.7,40.4,467.7,54.8,467.7z"/>
<path fill="#2B414D" d="M6.5,351.9l283.8-134.5c8.6-4.3,23-4.3,31.6,0l283.8,134.5c8.6,4.3,8.6,12,0,16.3L321.8,502.6
	c-8.6,4.3-23,4.3-31.6,0L6.5,368.2C-2.2,363.9-2.2,356.2,6.5,351.9z M306,423.7c90,0,162.7,32.5,162.7,72.3S396,568.2,306,568.2
	s-162.7-32.5-162.7-72.3S216,423.7,306,423.7z"/>
<path fill="#455E6B" d="M454.3,385.9c0-34-66-61.7-147.9-61.7c-81.3,0-147.4,27.3-147.9,61.2c0,0-15.8,111-15.3,111
	c0-32.5,68.4-72.3,163.2-72.3c88,0,153.6,41.2,162.2,71.8C468.7,495.9,454.3,385.9,454.3,385.9z"/>
<path fill="#4B6370" d="M315.6,324.2v100.5c83.3,2.9,144.5,42.1,153.1,71.8l-14.4-110.5C454.3,352.9,393.1,326.6,315.6,324.2z"/>
</svg>
