<?xml version="1.0" encoding="utf-8"?>
<!-- Generator: Adobe Illustrator 18.0.0, SVG Export Plug-In . SVG Version: 6.00 Build 0)  -->
<!DOCTYPE svg PUBLIC "-//W3C//DTD SVG 1.1//EN" "http://www.w3.org/Graphics/SVG/1.1/DTD/svg11.dtd">
<svg version="1.1" id="Layer_1" xmlns="http://www.w3.org/2000/svg" xmlns:xlink="http://www.w3.org/1999/xlink" x="0px" y="0px"
	 viewBox="0 0 612 792" enable-background="new 0 0 612 792" xml:space="preserve">
<g>
	<path fill="#384EA1" d="M510.5,180.2c-7.3-40.6-91.3-50.9-204.4-51.4C193,129.1,109,139.4,101.7,180.2
		C91.5,236.1,68.4,405,68.4,405c0,95.4,153.5,227.5,213.7,275.7c6.9,5.6,15.3,8.4,23.7,8.4s16.8-2.8,24-8.4
		c60.2-48.1,213.7-180.3,213.7-275.7C543.8,405,520.9,236.1,510.5,180.2L510.5,180.2z M432.2,338.9c-2.8,0-5.6-0.6-8-1.7L381,385.5
		l6.5,64.5c9.1,1.3,16,9.1,16,18.3c0,10.6-9,19.3-20,18.5c-9.8-0.7-17.2-9.1-17.2-18.9v-1.5l-60.2-26.6l-59.6,26.3
		c0,0.6,0.2,1.5,0.2,2.2c0,10.1-8.2,18.6-18.6,18.6c-10.1,0-18.6-8.2-18.6-18.6c0-9.1,6.5-16.6,15.1-18.1l6.5-64.8L188,337.2
		c-2.4,1.1-5.2,1.7-8,1.7c-10.1,0-18.6-8.2-18.6-18.6c0-10.1,8.2-18.6,18.6-18.6c6.9,0,13,3.9,16.2,9.5l63.7-13.8l32.6-55.9
		c-3-3.2-4.7-7.6-4.7-12.3c0-10.5,8.8-19.2,19.7-18.5c9.9,0.6,17.7,9.2,17.4,19.2c-0.1,4.5-1.9,8.6-4.7,11.7l32.6,55.9l63.7,13.8
		c3.2-5.6,9.3-9.5,16.2-9.5c10.1,0,18.6,8.2,18.6,18.6C450.7,330.5,442.3,338.9,432.2,338.9L432.2,338.9z"/>
	<ellipse fill="#384EA1" cx="314.4" cy="376.5" rx="110.6" ry="98.5"/>
	<ellipse fill="#384EA1" cx="309.9" cy="364.8" rx="176.1" ry="156.8"/>
</g>
<g>
	<g>
		<g>
			<path fill="#FFFFFF" d="M434.6,386c-6.2-18.5-8.8-32.7-7.9-42.8c1.8-23.3,8.6-44.6,20.4-63.9l-45.5-45.5
				c-14.1,12.3-30.3,19.1-48.8,20.4c-17.1,1.8-33.2-1.5-48.1-9.9c-15.8,7.9-31.9,11.2-48.1,9.9c-17.6-1.3-33.2-7.5-46.8-18.5
				l-45.5,45.5c11,19.8,17.1,40.4,18.5,61.9c0.4,10.1-2.4,23.9-8.6,41.5c-3.5,9.7-6.2,18-7.9,25c-1.3,7-2.2,12.7-2.6,17.1
				c-0.4,18.9,4.8,35.8,15.8,50.7c8.3,11,22.4,23.3,42.2,36.9c21.1,11,37.3,17.8,48.8,20.4c1.3,0.9,3.1,1.8,5.3,2.6
				c2.2,0.9,3.5,1.5,4,2c0.4,0.4,3.7,2,9.9,4.6c7.5,4.4,12.5,9,15.2,13.8c3.1-5.3,8.1-9.9,15.2-13.8c5.3-2.6,9.4-4.6,12.5-5.9
				c3.5-1.3,5.9-2.4,7.2-3.3c2.2-0.9,5.3-2.2,9.2-4c5.7-2.2,10.5-4,14.5-5.3c11-4,19.3-7.7,25-11.2c18.5-13.6,32.1-25.7,40.9-36.2
				c11.4-14.9,16.9-32.1,16.5-51.4C445.3,418.1,441.6,404.4,434.6,386z M343.6,405.1c-7.5,4.8-18.7,7.2-33.6,7.2h-21.1v58h-32.3
				V321.4h45.5c12.7,0,23.1,1,31,3s14.5,6.5,19.8,13.5c6.2,7.5,9.2,16.7,9.2,27.7C362.1,383.6,355.9,396.8,343.6,405.1z"/>
			<path fill="#FFFFFF" d="M324.5,351.7c-3.5-3.1-6.7-4.8-9.6-5.3c-2.9-0.4-6.5-0.7-10.9-0.7h-15.8v42.8h12.5c3.5,0,6.5-0.1,8.9-0.3
				c2.4-0.2,5.4-1,8.9-2.3c3.5-1.3,6.3-3.7,8.2-7.2c2-3.5,3-7.9,3-13.2C329.8,359.4,328,354.8,324.5,351.7z"/>
		</g>
	</g>
	<g>
	</g>
	<g>
	</g>
	<g>
	</g>
	<g>
	</g>
	<g>
	</g>
	<g>
	</g>
	<g>
	</g>
	<g>
	</g>
	<g>
	</g>
	<g>
	</g>
	<g>
	</g>
	<g>
	</g>
	<g>
	</g>
	<g>
	</g>
	<g>
	</g>
</g>
</svg>
