<?xml version="1.0" encoding="utf-8"?>
<!-- Generator: Adobe Illustrator 18.0.0, SVG Export Plug-In . SVG Version: 6.00 Build 0)  -->
<!DOCTYPE svg PUBLIC "-//W3C//DTD SVG 1.1//EN" "http://www.w3.org/Graphics/SVG/1.1/DTD/svg11.dtd">
<svg version="1.1" id="Capa_1" xmlns="http://www.w3.org/2000/svg" xmlns:xlink="http://www.w3.org/1999/xlink" x="0px" y="0px"
	 viewBox="0 0 512 512" enable-background="new 0 0 512 512" xml:space="preserve">
<g>
	<g>
		<path fill="#B5B5B5" d="M379,183.2c-12.7-57.3-25.4-114.7-38.1-172c-21.5,0-42.9,0-64.4,0c3.1,57.3,6.1,114.7,9.2,172H379z"/>
		<path fill="#B5B5B5" d="M290.6,274.7c4,75.4,8.1,150.7,12.1,226.1c48.9,0,97.8,0,146.7,0c-16.7-75.4-33.4-150.7-50.1-226.1
			L290.6,274.7L290.6,274.7z"/>
		<path fill="#B5B5B5" d="M235.5,11.2c-21.5,0-42.9,0-64.4,0c-12.7,57.3-25.4,114.7-38.1,172h93.3
			C229.4,125.9,232.4,68.5,235.5,11.2z"/>
		<path fill="#B5B5B5" d="M62.6,500.8c48.9,0,97.8,0,146.7,0c4-75.4,8.1-150.7,12.1-226.1H112.7C96,350.1,79.3,425.5,62.6,500.8z"/>
		<path fill="#EAC31B" d="M506.1,207H5.9c-3.3,0-5.9,2.7-5.9,5.9V245c0,3.3,2.7,5.9,5.9,5.9h32.2v48.1c0,3.3,2.7,5.9,5.9,5.9h32.1
			c2.7,0,5.1-1.8,5.8-4.5L94.5,251h323l12.6,49.6c0.7,2.6,3,4.5,5.8,4.5H468c3.3,0,5.9-2.7,5.9-5.9V251h32.2c3.3,0,5.9-2.7,5.9-5.9
			v-32.1C512,209.6,509.3,207,506.1,207z"/>
	</g>
</g>
</svg>
