<?xml version="1.0" encoding="utf-8"?>
<!-- Generator: Adobe Illustrator 21.1.0, SVG Export Plug-In . SVG Version: 6.00 Build 0)  -->
<svg version="1.1" id="Capa_1" xmlns="http://www.w3.org/2000/svg" xmlns:xlink="http://www.w3.org/1999/xlink" x="0px" y="0px"
	 viewBox="0 0 100 100" style="enable-background:new 0 0 100 100;" xml:space="preserve">
<style type="text/css">
	.st0{fill:#734EAF;}
	.st1{fill:#FFFFFF;}
	.st2{fill:none;}
</style>
<g>
	<rect y="0" class="st0" width="100" height="100"/>
</g>
<g>
	<path class="st1" d="M92.1,33.4c-2.2,0-3.9,1.8-3.9,3.9c0,2.2,1.8,3.9,3.9,3.9c2.2,0,3.9-1.8,3.9-3.9S94.2,33.4,92.1,33.4z
		 M92.1,39.1c-1,0-1.8-0.8-1.8-1.8s0.8-1.8,1.8-1.8s1.8,0.8,1.8,1.8C93.8,38.3,93.1,39.1,92.1,39.1z"/>
	<path class="st1" d="M83.7,53.1l-32.1-25c-1-0.7-2.4-0.7-3.3,0L16,53.1c-0.9,0.7-1,1.6-0.8,2.2c0.2,0.6,0.8,1.2,1.9,1.2
		c0,0,2.8,0,3.8,0c0.5,0,0.5,0.5,0.5,0.5v8c0,0.4-0.3,0.4-0.5,0.3c-0.2,0-0.4,0-0.6,0c-5.1,0-9.3,4.2-9.3,9.3c0,1.7,0.9,3.7,1.5,4.8
		c0.2,0.4,0.1,0.7,0,0.9c-0.9,2.7-2.7,8.8-0.9,11.4c0.6,0.9,1.5,1.3,2.6,1.3H49h0.1c0.1,0,0.4,0,0.6,0h24.1c1.9,0,3.4-1,4.3-2.8
		s0.3-4.4,0.3-6.9c0-6.9,0-26.3,0-26.3s-0.1-0.5,0.6-0.5c0.9,0,3.7,0,3.7,0c1.1,0,1.7-0.6,1.9-1.2C84.6,54.7,84.5,53.8,83.7,53.1z
		 M75,88.9c-0.4,0.8-0.9,0.9-1.3,0.9H49.6c-0.3,0-0.6,0-0.9,0H14.3l0,0c-0.1-0.2-0.5-1.3,0.3-4.8c0.5-2.3,1.3-4.4,1.3-4.4
		c0.3-0.7,0.2-1.5-0.2-2.2c-0.5-0.8-1.4-2.7-1.4-3.8c0-3.4,2.7-6.1,6.1-6.1c1.4,0,3.7,1.5,4.8,2.4c0.4,0.4,1,0.6,1.6,0.6
		c0.2,0,0.4,0,0.6-0.1c0.6-0.2,2.5-0.7,3.6-0.7c1.9,0,5.1,1.4,6.1,2c0.3,0.2,0.6,0.2,1,0.2c0.6,0,1.3-0.3,1.7-0.8
		c1-1.2,3-3.7,5.6-3.7c2.1,0,3.7,1.5,4.8,2.4c0.4,0.4,1,0.6,1.6,0.6c0.2,0,0.4,0,0.6-0.1c0.6-0.2,2.5-0.7,3.6-0.7
		c3.6,0,8.4,4.9,10,6.8c0.4,0.5,1.1,0.9,1.7,1c1.1,0.1,4.7,0.9,5.8,2.3c0.6,0.8,1.1,1.8,1.5,3l0,0l0,0C75.5,85.7,75.6,87.7,75,88.9z
		 M77.8,53.3c-0.1,0-0.3,0-0.3,0c-1.4,0-2.5,1.1-2.5,2.5v21.3c0,0.6-0.3,0.5-0.4,0.4c-2-1.3-4.7-1.9-5.9-2.1c-0.1,0-0.4-0.1-0.6-0.4
		c-1.6-1.8-6.9-7.5-12.1-7.5c-1.3,0-2.9,0.4-3.9,0.6c-0.1,0-0.3,0-0.5-0.1c-1.2-0.9-3.9-2.7-6.3-2.7c-2.9,0-5.8,2.6-7.2,4
		c-0.1,0.1-0.3,0.2-0.6,0.1c-1.5-0.7-4.3-1.8-6.6-1.8c-1.2,0-2.8,0.3-3.7,0.6c-0.2,0-0.5,0-0.8-0.2c-0.4-0.3-0.9-0.6-1.5-1
		c-0.1-0.1-0.3-0.3-0.3-0.6V55.8c0-1.4-1.1-2.5-2.5-2.5c0,0-0.4,0-0.6,0c-0.5,0-0.3-0.2-0.3-0.2l28-21.8c0,0,0.2-0.2,0.5-0.2
		s0.5,0.2,0.5,0.2l27.4,21.3C77.7,52.6,78.9,53.3,77.8,53.3z"/>
	<path class="st1" d="M88.6,48.2L52.8,18.9c-1.6-1.3-4.1-1.3-5.7,0L11.2,48.2c-0.7,0.6-0.8,1.6-0.2,2.3s1.6,0.8,2.3,0.2l35.8-29.3
		c0.4-0.3,1.2-0.3,1.6,0l35.8,29.3c0.3,0.2,0.7,0.4,1,0.4c0.5,0,0.9-0.2,1.3-0.6C89.4,49.8,89.3,48.8,88.6,48.2z"/>
	<path class="st1" d="M70.9,52.7L51.7,38.5c-1-0.8-2.6-0.8-3.6,0L29,52.7c-0.6,0.4-0.7,1.2-0.3,1.8s1.2,0.7,1.8,0.3l19-14.3
		c0.2-0.1,0.3-0.1,0.5,0l19.2,14.3c0.2,0.2,0.5,0.3,0.8,0.3c0.4,0,0.8-0.2,1-0.5C71.5,54,71.4,53.1,70.9,52.7z"/>
	<path class="st1" d="M16.3,35.6c2.2,0,3.9-1.8,3.9-3.9c0-2.2-1.8-3.9-3.9-3.9c-2.2,0-3.9,1.8-3.9,3.9S14.2,35.6,16.3,35.6z
		 M16.3,29.9c1,0,1.8,0.8,1.8,1.8c0,1-0.8,1.8-1.8,1.8s-1.8-0.8-1.8-1.8C14.6,30.7,15.4,29.9,16.3,29.9z"/>
	<path class="st1" d="M39.6,17.6c2.2,0,3.9-1.8,3.9-3.9c0-2.2-1.8-3.9-3.9-3.9c-2.2,0-3.9,1.8-3.9,3.9S37.4,17.6,39.6,17.6z
		 M39.6,12c1,0,1.8,0.8,1.8,1.8s-0.8,1.8-1.8,1.8s-1.8-0.8-1.8-1.8S38.6,12,39.6,12z"/>
	<path class="st1" d="M68.6,23.6c2.2,0,3.9-1.8,3.9-3.9c0-2.2-1.8-3.9-3.9-3.9c-2.2,0-3.9,1.8-3.9,3.9
		C64.7,21.9,66.4,23.6,68.6,23.6z M68.6,17.9c1,0,1.8,0.8,1.8,1.8s-0.8,1.8-1.8,1.8s-1.8-0.8-1.8-1.8C66.8,18.7,67.6,17.9,68.6,17.9
		z"/>
	<path class="st1" d="M80.2,34.4c1.5,0,2.7-1.2,2.7-2.7S81.7,29,80.2,29s-2.7,1.2-2.7,2.7C77.6,33.2,78.8,34.4,80.2,34.4z
		 M80.2,31.2c0.3,0,0.5,0.2,0.5,0.5s-0.2,0.5-0.5,0.5s-0.5-0.2-0.5-0.5C79.7,31.4,80,31.2,80.2,31.2z"/>
	<path class="st1" d="M28.6,26.8c1.5,0,2.7-1.2,2.7-2.7s-1.2-2.7-2.7-2.7s-2.7,1.2-2.7,2.7S27.1,26.8,28.6,26.8z M28.6,23.6
		c0.3,0,0.5,0.2,0.5,0.5s-0.2,0.5-0.5,0.5s-0.5-0.2-0.5-0.5C28.1,23.9,28.3,23.6,28.6,23.6z"/>
	<path class="st1" d="M57.6,12c1.5,0,2.7-1.2,2.7-2.7s-1.2-2.7-2.7-2.7s-2.7,1.2-2.7,2.7C54.9,10.8,56.1,12,57.6,12z M57.6,8.7
		c0.3,0,0.5,0.2,0.5,0.5s-0.2,0.5-0.5,0.5s-0.5-0.2-0.5-0.5S57.3,8.7,57.6,8.7z"/>
</g>
<rect x="92" y="-3.4" class="st2" width="308" height="108.4"/>
</svg>
