<?xml version="1.0" encoding="utf-8"?>
<!-- Generator: Adobe Illustrator 21.1.0, SVG Export Plug-In . SVG Version: 6.00 Build 0)  -->
<svg version="1.1" id="Capa_1" xmlns="http://www.w3.org/2000/svg" xmlns:xlink="http://www.w3.org/1999/xlink" x="0px" y="0px"
	 viewBox="0 0 100 100" style="enable-background:new 0 0 100 100;" xml:space="preserve">
<style type="text/css">
	.st0{fill:#F26200;}
	.st1{fill:#FFFFFF;}
</style>
<rect x="0" y="1" class="st0" width="100" height="100"/>
<g>
	<path class="st1" d="M95.7,75.5h-1.5c-0.9,0-1-0.6-1-1c0-2.4,0-7.6,0-9.6c0-0.5,0.4-0.5,0.4-0.5h0.2c1.2,0,1.5-0.8,1.6-1
		c0.1-0.2,0.3-1.1-0.6-1.8l-12.5-9.7c-0.4-0.3-0.9-0.5-1.4-0.5s-1,0.2-1.4,0.5L67,61.7c-0.9,0.7-0.7,1.5-0.6,1.8
		c0.1,0.2,0.4,1,1.6,1h0.2c0,0,0.4,0,0.4,0.5c0,2.1,0,7.3,0,9.7c0,0.4,0,0.9-0.9,0.9h-7.7c-0.7,0-1-0.3-1.2-0.5L12.4,20.7
		C11.9,20.1,11.4,20,11,20c-0.8,0-1.6,0.6-1.6,1.9v52.7c0,0,0,1-1.3,1c-0.5,0-1.9,0-1.9,0c-0.7,0-1.3,0.6-1.3,1.3
		C5,77.5,5.6,78,6.3,78h5.7h45.6h38.2c0.7,0,1.3-0.6,1.3-1.3C97,76.1,96.4,75.5,95.7,75.5z M70.7,62l9.6-7.4c0,0,0.5-0.4,0.7-0.4
		c0.2,0,0.7,0.4,0.7,0.4l9.6,7.5c0.2,0.2,0.1,0.4,0,0.5c-0.4,0.4-0.6,0.9-0.6,1.5v10.6c0,0,0.1,0.8-1,0.8c-1,0-2.7,0-3.9,0
		c-1,0-0.9-0.8-0.9-0.8v-1.4c0-0.5,0-1.2,0-1.7c0-0.1,0-1.5-1-2.5c-0.5-0.5-1.5-1.1-3.1-1.1c-1.6,0-2.5,0.6-3,1.1
		c-1,1.1-1,2.4-1,2.6c0,0.4,0,1.2,0,1.6v1.3c0,0,0.1,0.9-0.9,0.9c-1,0-2.8,0-4,0c-0.9,0-0.8-0.9-0.8-0.9V64c0-0.5-0.2-1-0.6-1.4
		C70.5,62.5,70.4,62.3,70.7,62z M79.4,71.5c0-0.7,0.5-1.1,1.5-1.1c1.3,0,1.6,0.6,1.6,1.2c0,0.5,0,1.2,0,1.7v1.5c0,0,0.1,0.8-0.8,0.8
		c-0.3,0-0.7,0-1.2,0c-1,0-1-0.7-1-0.7v-1.6C79.4,72.7,79.4,72,79.4,71.5z M12.8,75.5c-1,0-0.9-0.8-0.9-0.8V24l43.4,50.7
		c0,0,0.7,0.9-0.7,0.9C44.2,75.5,23.6,75.5,12.8,75.5z"/>
	<path class="st1" d="M42.3,52.3C42.3,52.4,42.3,52.4,42.3,52.3l4.1,4.8c1.4,1.7,3.5,2.7,5.8,2.7c1.8,0,3.5-0.6,4.9-1.8
		c1.5-1.3,2.5-3.1,2.7-5.1c0.2-2-0.5-4-1.8-5.5c-1.4-1.7-3.5-2.7-5.8-2.7c-0.6,0-1.2,0-1.8,0.2c-0.5,0.2-0.7-0.1-0.8-0.2
		c-0.9-0.7-2-1.1-3.2-1.1c-1.2,0-2.4,0.4-3.4,1.2c-0.6,0.5-1,1-1.3,1.6c-0.1,0.2-0.5,0.6-0.8,0.1l-1.7-2c-0.4-0.5,0-0.7,0.2-0.8
		c0.4-0.2,0.8-0.4,1.1-0.7c0.9-0.7,1.4-1.7,1.5-2.9c0.1-1.1-0.3-2.2-1-3.1c-0.4-0.5-1.4-0.9-1.6-1.2c-0.2-0.2-0.5-1.3-0.9-1.8
		c-0.8-1-2-1.5-3.2-1.5c-0.1,0-0.1,0-0.2,0c-0.2,0-0.7,0.1-0.9-0.3l-3.8-4.5c-0.6-0.7-1.5-1.1-2.4-1.1c-0.7,0-1.5,0.3-2,0.7
		c-0.1,0.1-0.1,0.1-0.2,0.2c-0.1,0.1-0.4,0.4-0.7,0l-2.7-3.2c-0.4-0.5-1.2-0.6-1.8-0.2c-0.5,0.4-0.6,1.2-0.2,1.8L42.3,52.3z
		 M44.5,46.9c0.5-0.4,1.1-0.6,1.8-0.6c0.8,0,1.6,0.4,2.1,1c0,0,0.1,0.1,0.1,0.1l0.3,0.4c0,0,0.2,0.5,0.8,0.2
		c0.1-0.1,0.5-0.2,0.5-0.2c0.7-0.3,1.4-0.5,2.1-0.5c1.5,0,2.9,0.7,3.9,1.8c0.9,1,1.3,2.3,1.2,3.7c-0.1,1.3-0.7,2.6-1.8,3.4
		c-0.9,0.8-2.1,1.2-3.3,1.2c-1.5,0-2.9-0.7-3.9-1.8l-4.1-4.8C43.2,49.6,43.4,47.9,44.5,46.9z M27.2,30c0-0.1,0-0.3,0.2-0.4
		c0.1-0.1,0.3-0.1,0.4-0.1c0.2,0,0.4,0.1,0.5,0.2c0,0,3.6,4.3,4.8,5.7c0.3,0.3,0.6,0.3,0.8,0.2c0.1,0,0.4-0.2,0.4-0.2
		c0.2-0.1,0.5-0.2,0.7-0.2c0.5,0,1,0.2,1.3,0.6c0.3,0.3,0.4,0.7,0.4,1.1c0,0-0.1,0.5,0.2,0.8c0.4,0.4,0.9,0.4,0.9,0.4
		c0.3,0,0.7,0.2,1,0.6c0.3,0.3,0.4,0.8,0.4,1.2c0,0.5-0.3,0.9-0.6,1.2c-0.4,0.3-0.8,0.4-1.1,0.4c0,0,0,0,0,0c-0.5,0-1-0.2-1.3-0.6
		l-8.9-10.6C27.2,30.3,27.2,30.1,27.2,30z"/>
</g>
</svg>
