<?xml version="1.0" encoding="utf-8"?>
<!-- Generator: Adobe Illustrator 21.1.0, SVG Export Plug-In . SVG Version: 6.00 Build 0)  -->
<svg version="1.1" id="Capa_1" xmlns="http://www.w3.org/2000/svg" xmlns:xlink="http://www.w3.org/1999/xlink" x="0px" y="0px"
	 viewBox="0 0 100 100" style="enable-background:new 0 0 100 100;" xml:space="preserve">
<style type="text/css">
	.st0{fill:#3D97C9;}
	.st1{fill:#FFFFFF;}
</style>
<g>
	<rect x="0.4" y="-0.2" class="st0" width="99.6" height="100"/>
</g>
<g>
	<g>
		<path class="st1" d="M24.6,78.5c3.3,0,5.1-1.2,6.5-2.3c1.3-1,2.3-1.7,4.5-1.7c2.2,0,3.3,0.7,4.5,1.7c1.4,1.1,3.2,2.3,6.5,2.3
			s5.1-1.2,6.5-2.3c1.3-1,2.3-1.7,4.5-1.7c2.2,0,3.3,0.7,4.5,1.7c1.4,1.1,3.2,2.3,6.5,2.3c3.3,0,5.1-1.2,6.5-2.3
			c1.3-1,2.3-1.7,4.5-1.7s3.3,0.7,4.5,1.7c1.4,1,3.2,2.3,6.4,2.3c0.8,0,1.5-0.5,1.7-1.3c0.2-1.1-0.6-2-1.6-2c-2.2,0-3.3-0.7-4.5-1.7
			c-1.4-1.1-3.2-2.3-6.5-2.3c-0.1,0-0.2,0-0.3,0c-0.3,0-0.7,0-0.7-0.5c0,0,0-19.7,0-26.5c0-0.5,0.4-0.5,0.4-0.5h4
			c1.2,0,1.8-0.6,2-1.2c0.2-0.6,0.1-1.5-0.8-2.2l-6.4-5c-0.4-0.3-0.4-0.6-0.4-0.8v-11c0-1.4-1.2-2.6-2.6-2.6h-7.8
			c-1.4,0-2.6,1.2-2.6,2.6v1.3c0,0.5-0.4,0.2-0.4,0.2l-13.6-11c-1-0.8-2.5-0.8-3.5,0L13.1,40.3c-0.9,0.7-1,1.6-0.8,2.2
			c0.2,0.6,0.9,1.2,2,1.2h4.1c0,0,0.6,0,0.6,0.6c0,7.1,0,28.1,0,28.1c0,0.4-0.2,0.3-0.3,0.3c-1.2-0.7-2.8-1.4-5.2-1.4
			c-0.8,0-1.5,0.5-1.7,1.3c-0.2,1.1,0.6,2,1.6,2c2.2,0,3.3,0.7,4.5,1.7C19.6,77.2,21.3,78.5,24.6,78.5z M68.6,24.5
			c0-0.4,0.4-0.4,0.4-0.4h5.4c0,0,0.4,0,0.4,0.4c0,1.9,0,5.2,0,6.9c0,0.5-0.4,0.3-0.4,0.3l-5.7-4.7c0-0.1-0.1-0.1-0.1-0.4
			C68.6,25.8,68.6,25,68.6,24.5z M51.5,73.5c-1.3,0.9-2.3,1.7-4.5,1.7c-1.2,0-2-0.3-2.9-0.6c-0.1-0.1-0.4-0.2-0.4-0.5v-7.3
			c0-0.5,0-1.3,0-1.8c0,0-0.1-2.8,1.5-4.4c0.9-0.9,2-1.3,3.7-1.3c1.7,0,3,0.4,4,1.4c1.7,1.7,1.7,4.3,1.7,4.4c0,0.4,0,1.2,0,1.8v4.6
			c0,0.5-0.4,0.5-0.4,0.6C53.1,72.4,52.3,73,51.5,73.5z M19.3,40.5c-0.7,0-0.2-0.5-0.2-0.5l29.6-23.1c0,0,0.2-0.2,0.4-0.2
			c0.3,0,0.5,0.3,0.5,0.3l29.4,22.9l-0.2,0.7h-0.4c-1.4,0-2.6,1.2-2.6,2.6V72c0,0.4-0.3,0.4-0.4,0.5c-0.7,0.4-1.3,0.8-1.9,1.2
			c-1.3,1-2.3,1.7-4.5,1.7c-2.2,0-3.3-0.7-4.5-1.7c-1.3-1-3-2.1-6-2.3c-0.2,0-0.5,0-0.5-0.6c0-1,0-4.2,0-4.2c0-0.4,0-1.2,0-1.8
			c0-0.2,0-4-2.6-6.7c-1.6-1.6-3.7-2.4-6.3-2.4c-2.5,0-4.5,0.8-6.1,2.3c-2.6,2.7-2.5,6.6-2.5,6.8c0,0.4,0,1.2,0,1.7v5.1
			c0,0-0.4,0.4-0.5,0.4c-1.1-0.4-2.4-0.9-4.1-0.9c-3.3,0-5.1,1.2-6.5,2.3c-1.3,1-2.3,1.7-4.5,1.7c-1,0-2.3-0.4-2.3-0.8V43
			c0-1.4-1.1-2.6-2.5-2.6H19.3z"/>
		<path class="st1" d="M94.3,86.5c-2.2,0-3.3-0.7-4.5-1.7c-1.4-1.1-3.2-2.3-6.5-2.3c-3.3,0-5.1,1.2-6.5,2.3c-1.3,1-2.3,1.7-4.5,1.7
			c-2.2,0-3.3-0.7-4.5-1.7c-1.4-1.1-3.2-2.3-6.5-2.3c-3.3,0-5.1,1.2-6.5,2.3c-1.3,1-2.3,1.7-4.5,1.7c-2.2,0-3.3-0.7-4.5-1.7
			c-1.4-1.1-3.2-2.3-6.5-2.3c-3.3,0-5.1,1.2-6.5,2.3c-1.3,1-2.3,1.7-4.5,1.7s-3.3-0.7-4.5-1.7c-1.4-1.1-3.2-2.3-6.5-2.3
			c-0.9,0-1.7,0.7-1.7,1.7c0,1,0.7,1.7,1.7,1.7c2.2,0,3.3,0.7,4.5,1.7c1.4,1.1,3.2,2.3,6.5,2.3s5.1-1.2,6.5-2.3
			c1.3-1,2.3-1.7,4.5-1.7c2.2,0,3.3,0.7,4.5,1.7c1.4,1.1,3.2,2.3,6.5,2.3c3.3,0,5.1-1.2,6.5-2.3c1.3-1,2.3-1.7,4.5-1.7
			s3.3,0.7,4.5,1.7c1.4,1.1,3.2,2.3,6.5,2.3c3.3,0,5.1-1.2,6.5-2.3c1.3-1,2.3-1.7,4.5-1.7s3.3,0.7,4.5,1.7c1.4,1.1,3.2,2.3,6.5,2.3
			c0.9,0,1.7-0.7,1.7-1.7C96,87.2,95.2,86.5,94.3,86.5z"/>
		<path class="st1" d="M28.6,42.3l20.2-15.1c0.1-0.1,0.4-0.1,0.5,0l20.4,15.1c0.3,0.2,0.5,0.3,0.8,0.3c0.4,0,0.8-0.2,1.1-0.5
			c0.4-0.6,0.4-1.4-0.3-1.9L51,25c-1.1-0.8-2.7-0.8-3.7,0L27,40.2c-0.6,0.4-0.7,1.2-0.3,1.9C27.2,42.6,28.1,42.8,28.6,42.3z"/>
	</g>
</g>
</svg>
