<?xml version="1.0" encoding="utf-8"?>
<!-- Generator: Adobe Illustrator 21.1.0, SVG Export Plug-In . SVG Version: 6.00 Build 0)  -->
<svg version="1.1" id="Capa_1" xmlns="http://www.w3.org/2000/svg" xmlns:xlink="http://www.w3.org/1999/xlink" x="0px" y="0px"
	 viewBox="0 0 100 100" style="enable-background:new 0 0 100 100;" xml:space="preserve">
<style type="text/css">
	.st0{fill:#1A9965;}
	.st1{fill:#FFFFFF;}
	.st2{fill:none;}
</style>
<g>
	<rect class="st0" width="100" height="100"/>
</g>
<g>
	<path class="st1" d="M67.9,32.9l-15-11.2c-1-0.7-2.5-0.7-3.4,0L34.7,32.9c-0.5,0.4-0.6,1.2-0.3,1.7c0.4,0.5,1.2,0.6,1.7,0.3
		l14.9-11.2c0.1-0.1,0.3-0.1,0.5,0l15,11.2c0.2,0.2,0.5,0.3,0.7,0.3c0.4,0,0.7-0.2,1-0.5C68.7,34.1,68.5,33.3,67.9,32.9z"/>
	<path class="st1" d="M91.7,59.1c0,0-12.6,0-16.8,0c-0.9,0-0.8-0.7-0.8-0.7V36.8c0,0-0.1-0.5,0.5-0.5s2.4,0,2.4,0
		c1.1,0,1.6-0.6,1.8-1.2c0.2-0.5,0.1-1.4-0.7-2l-4.5-3.5c-0.2-0.2-0.3-0.5-0.3-0.5v-8.1c0-1.3-1-2.4-2.4-2.4h-5.5
		c-1.3,0-2.4,1-2.4,2.4v0.2c0,0.5-0.3,0.1-0.3,0.1l-9.9-7.7c-0.5-0.4-1-0.5-1.5-0.5c-0.5,0-1.2,0.2-1.5,0.5L24.6,33.1
		c-0.8,0.6-0.9,1.5-0.7,2c0.2,0.5,0.8,1.2,1.8,1.2c0,0,1.9,0,2.5,0c0.5,0,0.4,0.5,0.4,0.5v21.8c0,0,0.1,0.5-0.7,0.5
		c-4.5,0-17.8,0-17.8,0c-0.5,0-1,0.5-1,1v29c0,0.5,0.5,1,1,1h1c0.5,0,1-0.5,1-1V63.2c0-0.5,0.5-1,1-1h17.8h14.3h12.2h14.3h17
		c0.5,0,1,0.5,1,1v25.9c0,0.5,0.5,1,1,1h1c0.5,0,1-0.5,1-1v-29C92.7,59.5,92.2,59.1,91.7,59.1z M66.1,21.7c0-0.2,0.2-0.2,0.2-0.2
		h3.6c0,0,0.2,0,0.2,0.3c0,1.2,0,3.4,0,4.5c0,0.3-0.2,0.2-0.2,0.2l-3.8-3.2c0-0.1-0.1-0.1-0.1-0.2C66.1,23,66.1,22.1,66.1,21.7z
		 M47.5,51.5c0,0,0-1.8,1-2.9c0.6-0.6,1.5-0.9,2.6-0.9c3.7,0,4,3.3,4,3.9c0,0.5,0,1.2,0,1.6v5.3c0,0,0,0.6-0.7,0.6
		c-1.5,0-4.5,0-6.4,0c-0.5,0-0.5-0.5-0.5-0.5v-5.5C47.5,52.8,47.5,52,47.5,51.5z M58.8,59.1c-0.6,0-0.6-0.6-0.6-0.6v-5.2
		c0-0.5,0-1.2,0-1.6c0-0.3,0-3.1-2-5.1c-1.3-1.3-2.9-1.9-5-1.9c-2,0-3.6,0.6-4.8,1.8c-1.9,2-1.9,4.8-1.9,5.1c0,0.5,0,1.2,0,1.5v5.5
		c0,0,0,0.4-0.5,0.4c-2.9,0-8.7,0-11.7,0c-0.6,0-0.6-0.5-0.6-0.5V35.5c0-1.2-0.9-2-2-2.3c-0.3-0.1,0-0.4,0-0.4l21.2-16.5
		c0,0,0.3-0.2,0.5-0.2c0.2,0,0.5,0.2,0.5,0.2l21.1,16.5c0,0,0.5,0.4,0,0.4c-1.1,0.2-1.9,1.2-1.9,2.3v22.7c0,0,0.1,0.8-0.8,0.8
		C67.3,59.1,61.8,59.1,58.8,59.1z"/>
	<path class="st1" d="M83.9,76h-8c-0.5,0-1.3,0.4-1.6,0.8l-5,6.1c-0.4,0.5-0.8,0.4-1-0.2l-2.5-7.4c-0.2-0.5-0.8-0.9-1.4-0.8l-7,1.3
		c-0.5,0.1-1.1-0.3-1.2-0.8l-1.3-8.6c-0.1-0.5-0.5-0.6-0.8-0.2L41.3,82.6c-0.4,0.5-0.7,0.4-0.9-0.2l-4.1-13.7
		c-0.2-0.5-0.5-0.6-0.9-0.2l-6.5,7.6c-0.4,0.5-1.1,0.7-1.6,0.7h-8.6c-0.5,0-1,0.5-1,1v0.4c0,0.5,0.5,1,1,1h9.7
		c0.5,0,1.3-0.4,1.6-0.7l4.4-5.1c0.4-0.5,0.8-0.4,0.9,0.2l4.3,14c0.2,0.5,0.5,0.6,0.9,0.2L52.6,72c0.4-0.5,0.7-0.4,0.8,0.2l0.9,5.5
		c0.1,0.5,0.6,0.9,1.2,0.8l7.4-1.4c0.5-0.1,1.2,0.3,1.4,0.8l3.3,9.5c0.2,0.5,0.6,0.6,1,0.2l7.1-8.5c0.4-0.5,1.1-0.8,1.6-0.8H84
		c0.5,0,1-0.5,1-1v-0.4C84.9,76.5,84.4,76,83.9,76z"/>
</g>
<rect x="15" y="30.6" class="st2" width="254.1" height="55.5"/>
</svg>
