<?xml version="1.0" encoding="utf-8"?>
<!-- Generator: Adobe Illustrator 21.1.0, SVG Export Plug-In . SVG Version: 6.00 Build 0)  -->
<svg version="1.1" id="Capa_1" xmlns="http://www.w3.org/2000/svg" xmlns:xlink="http://www.w3.org/1999/xlink" x="0px" y="0px"
	 viewBox="0 0 100 100" style="enable-background:new 0 0 100 100;" xml:space="preserve">
<style type="text/css">
	.st0{fill:#282E7C;}
	.st1{fill:#FFFFFF;}
</style>
<g>
	<rect class="st0" width="100" height="100"/>
</g>
<g>
	<g>
		<path class="st1" d="M46.7,61.9l-3.4-2.6C43,59.1,43,58.9,43,58.8v-6.4c0-1.1-0.9-2-2-2h-3.9c-1.1,0-2,0.8-2,1.9
			c0,0.4-0.3,0.2-0.3,0.2l-7.5-5.8c-0.4-0.3-0.9-0.5-1.4-0.5s-1,0.2-1.4,0.5L5.3,61.7c-0.9,0.7-0.7,1.5-0.6,1.7
			c0.1,0.2,0.4,0.9,1.6,0.9h1.5c0,0,0.5,0,0.5,0.5v17.8c0,1.1,0.9,2,2,2h10.9c1.1,0,2-0.9,2-2v-4.8c0-0.5,0-1.2,0-1.6
			c0,0,0-1.3,0.8-2.1c0.5-0.5,1.2-0.7,2.1-0.7c2.9,0,3,2.3,3,2.8s0,1.2,0,1.6v4.8c0,1.1,0.9,2,2,2h10.9c1.1,0,2-0.9,2-2V64.9
			c0-0.3,0.3-0.3,0.3-0.3h1.9c1.1,0,1.5-0.7,1.6-0.9C47.4,63.4,47.6,62.5,46.7,61.9z M37.5,53c0-0.2,0.2-0.2,0.2-0.2h2.9
			c0,0,0.2,0,0.2,0.2c0,1,0,2.8,0,3.7c0,0.2-0.2,0.1-0.2,0.1l-2.8-2.1c-0.1-0.1-0.2-0.2-0.2-0.3C37.5,54.4,37.5,53.4,37.5,53z
			 M41,64v17.4c0.1,0-0.7,0.6-0.7,0.6h-8.6l-0.5-0.2v-4c0-0.5,0-1.2,0-1.6c0-0.2,0-2.3-1.5-3.8c-1-1-2.3-1.5-4-1.5s-2.9,0.5-3.8,1.5
			c-1.5,1.6-1.5,3.6-1.4,3.9c0,0.5,0,1.2,0.1,1.6v3.9c-0.1,0-0.6,0.5-0.6,0.5h-8.5l-0.9-1.1V64c0-0.9-0.5-1.6-1.3-1.9
			C9,62,8.8,61.9,9.1,61.7l16.5-12.8c0,0,0.2-0.2,0.3-0.2c0.2,0,0.4,0.2,0.4,0.2l16.4,12.8c0.2,0.2,0,0.3-0.1,0.3
			C41.8,62.4,41.2,63.1,41,64z"/>
		<path class="st1" d="M95,69.3c0-0.5-0.8-11.1-5.4-22.8c-2.7-6.9-6.1-12.7-10.3-17.2c-5.2-5.7-11.5-9.5-18.7-11
			c-14.7-3.3-23.5,1.9-28.1,6.9c-5.1,5.4-6.7,11.4-6.8,11.6v0.2c-0.2,1.1,0.3,2,1.2,2.3c1,0.3,1.9-0.5,2-0.6l0,0
			c5-4.9,10.7-5.9,15.7-4.6c0.2,0.1,0.5,0.2,0,0.5c-2.2,1.5-2.8,3.7-3,5.5c-0.3,2.3,0.3,4.3,0.4,4.6c0.3,1.2,1.2,1.6,1.9,1.4
			c0.8-0.2,1.2-0.9,1.2-1.7l0,0v-0.1c0-0.2,0.2-1.6,3.2-2.6c6.4-2.3,9.8,4.3,10.3,5.4c3.7,9.2,2,21.5-8.4,32.9
			c-0.1,0.1-0.7,0.6-0.5,1.5c0.2,0.9,0.9,1.4,1.7,1.2c1.7-0.2,2.6,0.2,3.7,0.9c1.1,0.6,2.4,1.4,4.4,1.4c0.4,0,0.8,0,1.2-0.1
			c2.7-0.4,4-1.8,5-2.9c0.9-1,1.6-1.7,3.3-1.9c1.7-0.2,2.6,0.2,3.7,0.9c1.3,0.8,3,1.7,5.7,1.3c0.9-0.2,1.4-0.9,1.2-1.7
			s-0.9-1.4-1.7-1.2c-1.7,0.2-2.6-0.2-3.7-0.9c-1.3-0.8-3-1.7-5.7-1.3s-4,1.8-5,2.9c-0.9,1-1.6,1.7-3.3,1.9s-2.6-0.2-3.7-0.9
			c-0.7-0.4-1.6-0.9-2.6-1.2c-0.2-0.1-0.5-0.2-0.2-0.5c6.1-7.3,8.9-14.9,8.9-22.9c0-3.5-0.7-6.9-1.9-10c0-0.1,0-0.1-0.1-0.2
			c0,0,0-0.1-0.1-0.2c-1.4-3.4-3.4-6.5-6-9c-3.8-3.7-8.5-5.8-13.2-6.1c-4.3-0.2-8.4,1.1-12,3.8c-0.3,0.2-0.9,0.5-0.5-0.1
			c0.9-2.2,2.6-5.3,5.3-8.1c6.3-6.5,15-8.6,25.9-6.2c12.3,2.7,21.4,11.7,27.3,26.6c3.7,9.2,4.7,17.7,5,20.7c0,0.3-0.2,0.3-0.2,0.3
			c-0.7,0.1-1.2-0.2-2.2-0.7c-1.2-0.6-2.8-1.5-5-0.7c-2.3,0.8-3.1,2.4-3.7,3.6c-0.5,1.2-0.9,1.7-1.9,2c-1,0.3-1.6,0.1-2.7-0.5
			c-1.2-0.6-2.8-1.5-5-0.7c-0.8,0.2-1.2,1.1-0.9,1.9c0.2,0.8,1.1,1.2,1.9,0.9c1-0.3,1.6-0.1,2.7,0.5c0.9,0.5,1.9,1,3.3,1
			c0.5,0,1.1-0.1,1.7-0.3c2.3-0.8,3.1-2.4,3.7-3.6c0.5-1.2,0.9-1.7,1.9-2c1-0.3,1.6-0.1,2.7,0.5c1.2,0.6,2.8,1.4,5,0.7
			C94.8,70.8,95,69.6,95,69.3z M52.9,39.1c-1.7-0.4-3.6-0.3-5.4,0.4c-1.6,0.5-2.6,1.2-3.3,1.9c-0.1,0.1-0.2,0.2-0.2,0
			c0-1.7,0.6-4.3,3.8-5.8c0.2-0.1,0.3-0.2,0.6-0.1c1.9,0.9,3.3,2,4.8,3.5C53.2,39.1,53.2,39.2,52.9,39.1z"/>
	</g>
</g>
</svg>
